<svg width="1340" height="756" viewBox="0 0 1340 756" fill="none" xmlns="http://www.w3.org/2000/svg">
<rect width="1340" height="756" fill="#CDDBFD"/>
<rect x="805" y="373" width="435" height="10" fill="#323E59"/>
<path d="M832.375 280.182L854.193 341.716H854.807L876.625 280.182H883.307L857.909 350H851.091L825.693 280.182H832.375ZM892.393 350V280.182H932.893V285.909H898.768V312.193H930.745V317.92H898.768V344.273H933.575V350H892.393ZM946.513 350V280.182H969.047C974.001 280.182 978.138 281.08 981.456 282.875C984.797 284.648 987.308 287.114 988.99 290.273C990.695 293.409 991.547 297.011 991.547 301.08C991.547 305.148 990.695 308.739 988.99 311.852C987.308 314.966 984.808 317.398 981.49 319.148C978.172 320.898 974.058 321.773 969.149 321.773H949.956V315.943H968.979C972.615 315.943 975.638 315.341 978.047 314.136C980.479 312.932 982.285 311.216 983.467 308.989C984.672 306.761 985.274 304.125 985.274 301.08C985.274 298.034 984.672 295.375 983.467 293.102C982.263 290.807 980.445 289.034 978.013 287.784C975.604 286.534 972.558 285.909 968.876 285.909H952.888V350H946.513ZM977.297 318.5L994.479 350H987.115L970.104 318.5H977.297ZM1042.1 297.636C1041.72 293.75 1040 290.659 1036.96 288.364C1033.91 286.068 1030.08 284.92 1025.47 284.92C1022.22 284.92 1019.35 285.477 1016.88 286.591C1014.42 287.705 1012.49 289.25 1011.08 291.227C1009.7 293.182 1009 295.409 1009 297.909C1009 299.75 1009.4 301.364 1010.2 302.75C1010.99 304.136 1012.06 305.33 1013.4 306.33C1014.76 307.307 1016.26 308.148 1017.9 308.852C1019.56 309.557 1021.23 310.148 1022.91 310.625L1030.27 312.739C1032.5 313.352 1034.73 314.136 1036.96 315.091C1039.18 316.045 1041.22 317.25 1043.06 318.705C1044.92 320.136 1046.41 321.898 1047.52 323.989C1048.66 326.057 1049.23 328.545 1049.23 331.455C1049.23 335.182 1048.26 338.534 1046.33 341.511C1044.4 344.489 1041.63 346.852 1038.01 348.602C1034.4 350.33 1030.07 351.193 1025.02 351.193C1020.27 351.193 1016.15 350.409 1012.65 348.841C1009.15 347.25 1006.4 345.057 1004.4 342.261C1002.4 339.466 1001.27 336.227 1001.02 332.545H1007.57C1007.8 335.295 1008.71 337.625 1010.3 339.534C1011.89 341.443 1013.96 342.898 1016.5 343.898C1019.05 344.875 1021.89 345.364 1025.02 345.364C1028.5 345.364 1031.59 344.784 1034.3 343.625C1037.02 342.443 1039.16 340.807 1040.71 338.716C1042.27 336.602 1043.06 334.148 1043.06 331.352C1043.06 328.989 1042.45 327.011 1041.22 325.42C1039.99 323.807 1038.27 322.455 1036.07 321.364C1033.89 320.273 1031.35 319.307 1028.47 318.466L1020.12 316.011C1014.64 314.375 1010.39 312.114 1007.37 309.227C1004.34 306.341 1002.83 302.659 1002.83 298.182C1002.83 294.432 1003.83 291.136 1005.83 288.295C1007.85 285.432 1010.58 283.205 1014.01 281.614C1017.47 280 1021.34 279.193 1025.64 279.193C1029.98 279.193 1033.82 279.989 1037.16 281.58C1040.5 283.17 1043.15 285.364 1045.1 288.159C1047.08 290.932 1048.14 294.091 1048.27 297.636H1042.1ZM1068.07 280.182V350H1061.69V280.182H1068.07ZM1140.99 315.091C1140.99 322.364 1139.69 328.693 1137.1 334.08C1134.51 339.443 1130.94 343.602 1126.4 346.557C1121.87 349.489 1116.67 350.955 1110.78 350.955C1104.9 350.955 1099.68 349.489 1095.13 346.557C1090.61 343.602 1087.05 339.443 1084.46 334.08C1081.9 328.693 1080.61 322.364 1080.61 315.091C1080.61 307.818 1081.9 301.5 1084.46 296.136C1087.05 290.75 1090.62 286.591 1095.17 283.659C1099.71 280.705 1104.92 279.227 1110.78 279.227C1116.67 279.227 1121.87 280.705 1126.4 283.659C1130.94 286.591 1134.51 290.75 1137.1 296.136C1139.69 301.5 1140.99 307.818 1140.99 315.091ZM1134.78 315.091C1134.78 308.841 1133.74 303.489 1131.65 299.034C1129.55 294.557 1126.7 291.136 1123.09 288.773C1119.48 286.409 1115.37 285.227 1110.78 285.227C1106.21 285.227 1102.12 286.409 1098.51 288.773C1094.9 291.136 1092.03 294.545 1089.92 299C1087.83 303.455 1086.78 308.818 1086.78 315.091C1086.78 321.341 1087.83 326.693 1089.92 331.148C1092.01 335.602 1094.86 339.023 1098.48 341.409C1102.09 343.773 1106.19 344.955 1110.78 344.955C1115.37 344.955 1119.48 343.773 1123.09 341.409C1126.73 339.045 1129.59 335.636 1131.68 331.182C1133.77 326.705 1134.8 321.341 1134.78 315.091ZM1207.9 280.182V350H1201.69L1160.44 291.534H1159.9V350H1153.52V280.182H1159.69L1201.08 338.716H1201.63V280.182H1207.9Z" fill="#FF8585"/>
<path d="M809.273 406.182H816.636L841.966 467H842.58L867.909 406.182H875.273V476H869.273V419.648H868.727L845.17 476H839.375L815.818 419.648H815.273V476H809.273V406.182ZM889.137 476H882.456L907.853 406.182H914.672L940.069 476H933.387L911.501 414.466H911.024L889.137 476ZM893.944 449.239H928.581V454.966H893.944V449.239ZM1001.61 406.182V476H995.406L954.156 417.534H953.61V476H947.235V406.182H953.406L994.792 464.716H995.337V406.182H1001.61ZM1015.48 476H1008.79L1034.19 406.182H1041.01L1066.41 476H1059.73L1037.84 414.466H1037.36L1015.48 476ZM1020.28 449.239H1054.92V454.966H1020.28V449.239ZM1118.6 428C1117.96 425.682 1117.03 423.511 1115.8 421.489C1114.58 419.443 1113.05 417.659 1111.23 416.136C1109.44 414.591 1107.36 413.386 1105 412.523C1102.66 411.659 1100.04 411.227 1097.16 411.227C1092.61 411.227 1088.54 412.409 1084.95 414.773C1081.36 417.136 1078.52 420.545 1076.43 425C1074.36 429.455 1073.33 434.818 1073.33 441.091C1073.33 447.341 1074.37 452.693 1076.46 457.148C1078.55 461.602 1081.42 465.023 1085.05 467.409C1088.71 469.773 1092.89 470.955 1097.6 470.955C1101.89 470.955 1105.69 470 1108.98 468.091C1112.28 466.182 1114.85 463.455 1116.69 459.909C1118.55 456.364 1119.46 452.148 1119.42 447.261L1121.46 447.909H1099.1V442.182H1125.62V447.909C1125.62 453.864 1124.42 459.011 1122.01 463.352C1119.6 467.693 1116.29 471.045 1112.09 473.409C1107.88 475.773 1103.05 476.955 1097.6 476.955C1091.51 476.955 1086.18 475.489 1081.61 472.557C1077.04 469.602 1073.48 465.443 1070.94 460.08C1068.42 454.693 1067.16 448.364 1067.16 441.091C1067.16 435.614 1067.88 430.67 1069.34 426.261C1070.79 421.852 1072.85 418.08 1075.51 414.943C1078.19 411.807 1081.36 409.409 1085.02 407.75C1088.68 406.068 1092.72 405.227 1097.16 405.227C1100.97 405.227 1104.46 405.83 1107.62 407.034C1110.8 408.239 1113.6 409.898 1116.01 412.011C1118.44 414.102 1120.43 416.523 1121.97 419.273C1123.54 422 1124.6 424.909 1125.14 428H1118.6ZM1136.65 476V406.182H1177.15V411.909H1143.02V438.193H1175V443.92H1143.02V470.273H1177.83V476H1136.65ZM1188.85 476V406.182H1211.38C1216.34 406.182 1220.47 407.08 1223.79 408.875C1227.13 410.648 1229.64 413.114 1231.33 416.273C1233.03 419.409 1233.88 423.011 1233.88 427.08C1233.88 431.148 1233.03 434.739 1231.33 437.852C1229.64 440.966 1227.14 443.398 1223.83 445.148C1220.51 446.898 1216.39 447.773 1211.48 447.773H1192.29V441.943H1211.31C1214.95 441.943 1217.97 441.341 1220.38 440.136C1222.81 438.932 1224.62 437.216 1225.8 434.989C1227.01 432.761 1227.61 430.125 1227.61 427.08C1227.61 424.034 1227.01 421.375 1225.8 419.102C1224.6 416.807 1222.78 415.034 1220.35 413.784C1217.94 412.534 1214.89 411.909 1211.21 411.909H1195.22V476H1188.85ZM1219.63 444.5L1236.81 476H1229.45L1212.44 444.5H1219.63Z" fill="#4C76DD"/>
<path d="M98 151H784.82V605H98V151Z" fill="#23272E"/>
<rect x="98" y="583.173" width="686.82" height="21.8269" fill="#1E2227"/>
<rect x="98" y="583.173" width="30.5577" height="21.8269" fill="#4D78CC"/>
<path d="M307.249 377.091H278.207C278.001 374.688 277.452 372.508 276.56 370.551C275.701 368.595 274.5 366.913 272.955 365.505C271.445 364.064 269.608 362.965 267.446 362.21C265.283 361.42 262.829 361.026 260.082 361.026C255.277 361.026 251.209 362.193 247.879 364.527C244.583 366.861 242.078 370.208 240.361 374.568C238.679 378.927 237.838 384.162 237.838 390.273C237.838 396.726 238.696 402.133 240.413 406.493C242.163 410.818 244.686 414.079 247.982 416.276C251.277 418.439 255.242 419.52 259.876 419.52C262.52 419.52 264.888 419.194 266.982 418.542C269.076 417.855 270.896 416.877 272.44 415.607C273.985 414.336 275.238 412.809 276.199 411.024C277.195 409.204 277.864 407.162 278.207 404.896L307.249 405.102C306.905 409.565 305.652 414.113 303.49 418.748C301.327 423.347 298.255 427.604 294.273 431.517C290.325 435.396 285.433 438.52 279.598 440.889C273.762 443.257 266.982 444.442 259.259 444.442C249.578 444.442 240.893 442.365 233.204 438.211C225.549 434.058 219.49 427.947 215.027 419.88C210.599 411.813 208.385 401.944 208.385 390.273C208.385 378.533 210.651 368.646 215.182 360.614C219.713 352.547 225.823 346.453 233.513 342.334C241.202 338.181 249.784 336.104 259.259 336.104C265.918 336.104 272.046 337.013 277.641 338.833C283.236 340.652 288.145 343.312 292.368 346.814C296.59 350.281 299.988 354.555 302.563 359.635C305.137 364.716 306.699 370.534 307.249 377.091ZM440.521 390.273C440.521 402.013 438.239 411.916 433.673 419.983C429.107 428.016 422.946 434.109 415.188 438.263C407.43 442.382 398.779 444.442 389.236 444.442C379.624 444.442 370.939 442.365 363.181 438.211C355.457 434.023 349.313 427.913 344.747 419.88C340.216 411.813 337.95 401.944 337.95 390.273C337.95 378.533 340.216 368.646 344.747 360.614C349.313 352.547 355.457 346.453 363.181 342.334C370.939 338.181 379.624 336.104 389.236 336.104C398.779 336.104 407.43 338.181 415.188 342.334C422.946 346.453 429.107 352.547 433.673 360.614C438.239 368.646 440.521 378.533 440.521 390.273ZM411.068 390.273C411.068 383.956 410.227 378.636 408.545 374.31C406.897 369.951 404.443 366.655 401.182 364.424C397.955 362.158 393.973 361.026 389.236 361.026C384.499 361.026 380.499 362.158 377.238 364.424C374.012 366.655 371.557 369.951 369.875 374.31C368.227 378.636 367.403 383.956 367.403 390.273C367.403 396.589 368.227 401.927 369.875 406.287C371.557 410.612 374.012 413.907 377.238 416.173C380.499 418.404 384.499 419.52 389.236 419.52C393.973 419.52 397.955 418.404 401.182 416.173C404.443 413.907 406.897 410.612 408.545 406.287C410.227 401.927 411.068 396.589 411.068 390.273ZM512.468 443H471.893V337.545H512.056C522.903 337.545 532.275 339.657 540.17 343.879C548.1 348.067 554.21 354.109 558.501 362.004C562.827 369.865 564.989 379.288 564.989 390.273C564.989 401.258 562.844 410.698 558.553 418.593C554.262 426.454 548.186 432.496 540.325 436.718C532.464 440.906 523.178 443 512.468 443ZM500.522 418.696H511.438C516.656 418.696 521.101 417.855 524.774 416.173C528.482 414.491 531.297 411.59 533.219 407.471C535.176 403.352 536.154 397.619 536.154 390.273C536.154 382.927 535.158 377.194 533.167 373.075C531.211 368.955 528.327 366.055 524.517 364.373C520.741 362.69 516.107 361.849 510.614 361.849H500.522V418.696ZM596.36 443V337.545H672.362V360.614H624.99V378.739H668.448V401.807H624.99V419.932H672.156V443H596.36Z" fill="#191B20"/>
<path d="M144 166H164.372" stroke="#9DA5B4" stroke-width="4" stroke-linecap="round"/>
<path d="M113 166H127.551" stroke="#477EE4" stroke-width="4" stroke-linecap="round"/>
<path d="M177.468 166H200.75" stroke="#9DA5B4" stroke-width="4" stroke-linecap="round"/>
<path d="M267.686 166H290.968" stroke="#9DA5B4" stroke-width="4" stroke-linecap="round"/>
<path d="M213.846 166H254.59" stroke="#9DA5B4" stroke-width="4" stroke-linecap="round"/>
<circle cx="764.448" cy="169.917" r="7.27564" fill="#CB3E3E"/>
<circle cx="741.167" cy="169.917" r="7.27564" fill="#DEB855"/>
<circle cx="717.885" cy="169.917" r="7.27564" fill="#4ED18A"/>
</svg>
