<svg width="1280" height="640" viewBox="0 0 1280 640" fill="none" xmlns="http://www.w3.org/2000/svg">
<rect width="1280" height="640" fill="#F9D6BD"/>
<rect x="741.774" y="325.108" width="316.226" height="7.26957" fill="#F6CBAD"/>
<path d="M774.25 254.455L788.795 295.477H789.205L803.75 254.455H808.205L791.273 301H786.727L769.795 254.455H774.25ZM814.262 301V254.455H841.262V258.273H818.512V275.795H839.83V279.614H818.512V297.182H841.716V301H814.262ZM850.342 301V254.455H865.365C868.668 254.455 871.425 255.053 873.637 256.25C875.865 257.432 877.539 259.076 878.66 261.182C879.796 263.273 880.365 265.674 880.365 268.386C880.365 271.098 879.796 273.492 878.66 275.568C877.539 277.644 875.872 279.265 873.66 280.432C871.448 281.598 868.705 282.182 865.433 282.182H852.637V278.295H865.319C867.743 278.295 869.758 277.894 871.365 277.091C872.986 276.288 874.19 275.144 874.978 273.659C875.781 272.174 876.183 270.417 876.183 268.386C876.183 266.356 875.781 264.583 874.978 263.068C874.175 261.538 872.963 260.356 871.342 259.523C869.736 258.689 867.705 258.273 865.251 258.273H854.592V301H850.342ZM870.865 280L882.319 301H877.41L866.069 280H870.865ZM914.07 266.091C913.812 263.5 912.668 261.439 910.638 259.909C908.607 258.379 906.054 257.614 902.979 257.614C900.812 257.614 898.903 257.985 897.251 258.727C895.615 259.47 894.327 260.5 893.388 261.818C892.463 263.121 892.001 264.606 892.001 266.273C892.001 267.5 892.267 268.576 892.797 269.5C893.327 270.424 894.039 271.22 894.933 271.886C895.842 272.538 896.842 273.098 897.933 273.568C899.039 274.038 900.153 274.432 901.274 274.75L906.183 276.159C907.668 276.568 909.153 277.091 910.638 277.727C912.123 278.364 913.479 279.167 914.706 280.136C915.948 281.091 916.941 282.265 917.683 283.659C918.441 285.038 918.82 286.697 918.82 288.636C918.82 291.121 918.176 293.356 916.888 295.341C915.6 297.326 913.751 298.902 911.342 300.068C908.933 301.22 906.047 301.795 902.683 301.795C899.517 301.795 896.767 301.273 894.433 300.227C892.1 299.167 890.267 297.705 888.933 295.841C887.6 293.977 886.85 291.818 886.683 289.364H891.047C891.198 291.197 891.804 292.75 892.865 294.023C893.926 295.295 895.304 296.265 897.001 296.932C898.698 297.583 900.592 297.909 902.683 297.909C905.001 297.909 907.062 297.523 908.865 296.75C910.683 295.962 912.107 294.871 913.138 293.477C914.183 292.068 914.706 290.432 914.706 288.568C914.706 286.992 914.297 285.674 913.479 284.614C912.66 283.538 911.517 282.636 910.047 281.909C908.592 281.182 906.903 280.538 904.979 279.977L899.41 278.341C895.759 277.25 892.926 275.742 890.91 273.818C888.895 271.894 887.888 269.439 887.888 266.455C887.888 263.955 888.554 261.758 889.888 259.864C891.236 257.955 893.054 256.47 895.342 255.409C897.645 254.333 900.229 253.795 903.092 253.795C905.986 253.795 908.547 254.326 910.774 255.386C913.001 256.447 914.767 257.909 916.07 259.773C917.388 261.621 918.092 263.727 918.183 266.091H914.07ZM931.377 254.455V301H927.127V254.455H931.377ZM979.991 277.727C979.991 282.576 979.127 286.795 977.4 290.386C975.673 293.962 973.294 296.735 970.264 298.705C967.248 300.659 963.779 301.636 959.855 301.636C955.93 301.636 952.453 300.659 949.423 298.705C946.408 296.735 944.036 293.962 942.309 290.386C940.597 286.795 939.741 282.576 939.741 277.727C939.741 272.879 940.597 268.667 942.309 265.091C944.036 261.5 946.415 258.727 949.445 256.773C952.476 254.803 955.945 253.818 959.855 253.818C963.779 253.818 967.248 254.803 970.264 256.773C973.294 258.727 975.673 261.5 977.4 265.091C979.127 268.667 979.991 272.879 979.991 277.727ZM975.855 277.727C975.855 273.561 975.158 269.992 973.764 267.023C972.37 264.038 970.468 261.758 968.059 260.182C965.65 258.606 962.915 257.818 959.855 257.818C956.809 257.818 954.082 258.606 951.673 260.182C949.264 261.758 947.355 264.03 945.945 267C944.552 269.97 943.855 273.545 943.855 277.727C943.855 281.894 944.552 285.462 945.945 288.432C947.339 291.402 949.241 293.682 951.65 295.273C954.059 296.848 956.794 297.636 959.855 297.636C962.915 297.636 965.65 296.848 968.059 295.273C970.483 293.697 972.392 291.424 973.786 288.455C975.18 285.47 975.87 281.894 975.855 277.727ZM1024.6 254.455V301H1020.46L992.963 262.023H992.599V301H988.349V254.455H992.463L1020.05 293.477H1020.42V254.455H1024.6Z" fill="#D57F6D"/>
<path d="M766.795 356.364H771.398L787.229 394.375H787.612L803.443 356.364H808.045V400H804.295V364.78H803.955L789.232 400H785.609L770.886 364.78H770.545V400H766.795V356.364ZM816.711 400H812.535L828.408 356.364H832.67L848.543 400H844.367L830.688 361.541H830.39L816.711 400ZM819.715 383.274H841.363V386.854H819.715V383.274ZM887.006 356.364V400H883.129L857.347 363.459H857.006V400H853.022V356.364H856.879L882.745 392.947H883.086V356.364H887.006ZM895.672 400H891.496L907.369 356.364H911.631L927.504 400H923.328L909.649 361.541H909.351L895.672 400ZM898.676 383.274H920.324V386.854H898.676V383.274ZM960.124 370C959.726 368.551 959.144 367.195 958.377 365.93C957.61 364.652 956.658 363.537 955.522 362.585C954.4 361.619 953.1 360.866 951.623 360.327C950.159 359.787 948.526 359.517 946.722 359.517C943.881 359.517 941.338 360.256 939.094 361.733C936.85 363.21 935.074 365.341 933.767 368.125C932.475 370.909 931.828 374.261 931.828 378.182C931.828 382.088 932.482 385.433 933.789 388.217C935.096 391.001 936.885 393.139 939.158 394.631C941.445 396.108 944.059 396.847 946.999 396.847C949.684 396.847 952.056 396.25 954.115 395.057C956.175 393.864 957.78 392.159 958.931 389.943C960.096 387.727 960.664 385.092 960.635 382.038L961.914 382.443H947.936V378.864H964.513V382.443C964.513 386.165 963.76 389.382 962.255 392.095C960.749 394.808 958.682 396.903 956.054 398.381C953.426 399.858 950.408 400.597 946.999 400.597C943.192 400.597 939.861 399.68 937.006 397.848C934.151 396.001 931.928 393.402 930.337 390.05C928.76 386.683 927.972 382.727 927.972 378.182C927.972 374.759 928.426 371.669 929.336 368.913C930.245 366.158 931.53 363.8 933.192 361.839C934.868 359.879 936.85 358.381 939.137 357.344C941.424 356.293 943.952 355.767 946.722 355.767C949.108 355.767 951.289 356.143 953.263 356.896C955.252 357.649 956.999 358.686 958.505 360.007C960.025 361.314 961.267 362.827 962.233 364.545C963.213 366.25 963.874 368.068 964.215 370H960.124ZM971.405 400V356.364H996.717V359.943H975.389V376.371H995.375V379.95H975.389V396.42H997.143V400H971.405ZM1004.03 400V356.364H1018.11C1021.21 356.364 1023.8 356.925 1025.87 358.047C1027.96 359.155 1029.53 360.696 1030.58 362.67C1031.64 364.631 1032.18 366.882 1032.18 369.425C1032.18 371.967 1031.64 374.212 1030.58 376.158C1029.53 378.104 1027.96 379.624 1025.89 380.717C1023.82 381.811 1021.25 382.358 1018.18 382.358H1006.18V378.714H1018.07C1020.34 378.714 1022.23 378.338 1023.74 377.585C1025.26 376.832 1026.39 375.76 1027.13 374.368C1027.88 372.976 1028.26 371.328 1028.26 369.425C1028.26 367.521 1027.88 365.859 1027.13 364.439C1026.37 363.004 1025.24 361.896 1023.72 361.115C1022.21 360.334 1020.31 359.943 1018.01 359.943H1008.01V400H1004.03ZM1023.27 380.312L1034.01 400H1029.41L1018.77 380.312H1023.27Z" fill="#6D93F6"/>
<path d="M222 155H721.289V485.038H222V155Z" fill="#23272E"/>
<rect x="222" y="469.171" width="499.289" height="15.8672" fill="#1E2227"/>
<rect x="222" y="469.171" width="22.2141" height="15.8672" fill="#4D78CC"/>
<path d="M367.285 314.861H348.058C347.922 313.27 347.558 311.827 346.967 310.531C346.399 309.236 345.604 308.122 344.581 307.191C343.581 306.236 342.365 305.509 340.933 305.009C339.501 304.486 337.876 304.225 336.058 304.225C332.876 304.225 330.183 304.997 327.979 306.543C325.797 308.088 324.138 310.304 323.001 313.191C321.888 316.077 321.331 319.543 321.331 323.588C321.331 327.861 321.899 331.441 323.035 334.327C324.194 337.191 325.865 339.35 328.047 340.804C330.229 342.236 332.854 342.952 335.922 342.952C337.672 342.952 339.24 342.736 340.626 342.304C342.013 341.85 343.217 341.202 344.24 340.361C345.263 339.52 346.092 338.509 346.729 337.327C347.388 336.122 347.831 334.77 348.058 333.27L367.285 333.406C367.058 336.361 366.229 339.372 364.797 342.441C363.365 345.486 361.331 348.304 358.694 350.895C356.081 353.463 352.842 355.531 348.979 357.1C345.115 358.668 340.626 359.452 335.513 359.452C329.104 359.452 323.354 358.077 318.263 355.327C313.194 352.577 309.183 348.531 306.229 343.191C303.297 337.85 301.831 331.316 301.831 323.588C301.831 315.816 303.331 309.27 306.331 303.952C309.331 298.611 313.376 294.577 318.467 291.85C323.558 289.1 329.24 287.725 335.513 287.725C339.922 287.725 343.979 288.327 347.683 289.531C351.388 290.736 354.638 292.497 357.433 294.816C360.229 297.111 362.479 299.941 364.183 303.304C365.888 306.668 366.922 310.52 367.285 314.861ZM455.521 323.588C455.521 331.361 454.01 337.918 450.987 343.259C447.964 348.577 443.885 352.611 438.748 355.361C433.612 358.088 427.885 359.452 421.567 359.452C415.203 359.452 409.453 358.077 404.317 355.327C399.203 352.554 395.135 348.509 392.112 343.191C389.112 337.85 387.612 331.316 387.612 323.588C387.612 315.816 389.112 309.27 392.112 303.952C395.135 298.611 399.203 294.577 404.317 291.85C409.453 289.1 415.203 287.725 421.567 287.725C427.885 287.725 433.612 289.1 438.748 291.85C443.885 294.577 447.964 298.611 450.987 303.952C454.01 309.27 455.521 315.816 455.521 323.588ZM436.021 323.588C436.021 319.406 435.464 315.884 434.351 313.02C433.26 310.134 431.635 307.952 429.476 306.475C427.339 304.975 424.703 304.225 421.567 304.225C418.43 304.225 415.782 304.975 413.623 306.475C411.487 307.952 409.862 310.134 408.748 313.02C407.657 315.884 407.112 319.406 407.112 323.588C407.112 327.77 407.657 331.304 408.748 334.191C409.862 337.054 411.487 339.236 413.623 340.736C415.782 342.213 418.43 342.952 421.567 342.952C424.703 342.952 427.339 342.213 429.476 340.736C431.635 339.236 433.26 337.054 434.351 334.191C435.464 331.304 436.021 327.77 436.021 323.588ZM503.155 358.497H476.291V288.679H502.882C510.064 288.679 516.268 290.077 521.496 292.872C526.746 295.645 530.791 299.645 533.632 304.872C536.496 310.077 537.927 316.316 537.927 323.588C537.927 330.861 536.507 337.111 533.666 342.338C530.825 347.543 526.802 351.543 521.598 354.338C516.393 357.111 510.246 358.497 503.155 358.497ZM495.246 342.406H502.473C505.927 342.406 508.871 341.85 511.302 340.736C513.757 339.622 515.621 337.702 516.893 334.975C518.189 332.247 518.836 328.452 518.836 323.588C518.836 318.725 518.177 314.929 516.859 312.202C515.564 309.475 513.655 307.554 511.132 306.441C508.632 305.327 505.564 304.77 501.927 304.77H495.246V342.406ZM558.697 358.497V288.679H609.015V303.952H577.652V315.952H606.425V331.225H577.652V343.225H608.879V358.497H558.697Z" fill="#191B20"/>
<path d="M255.44 165.904H270.249" stroke="#9DA5B4" stroke-width="4" stroke-linecap="round"/>
<path d="M232.904 165.904H243.482" stroke="#477EE4" stroke-width="4" stroke-linecap="round"/>
<path d="M279.77 165.904H296.695" stroke="#9DA5B4" stroke-width="4" stroke-linecap="round"/>
<path d="M345.354 165.904H362.28" stroke="#9DA5B4" stroke-width="4" stroke-linecap="round"/>
<path d="M306.215 165.904H335.834" stroke="#9DA5B4" stroke-width="4" stroke-linecap="round"/>
<circle cx="706.479" cy="168.752" r="5.28907" fill="#CB3E3E"/>
<circle cx="689.554" cy="168.752" r="5.28907" fill="#DEB855"/>
<circle cx="672.629" cy="168.752" r="5.28907" fill="#4ED18A"/>
</svg>
